<svg xmlns="http://www.w3.org/2000/svg" viewBox="3 3 16 16"><path d="M11 3c-4.432 0-8 3.568-8 8s3.568 8 8 8 8-3.568 8-8-3.568-8-8-8" fill="#da4453"/><path d="m12.812 11.2 1.98-1.98a.619.619 0 0 0 .188-.458.622.622 0 0 0-.188-.458l-.916-.916a.63.63 0 0 0-.458-.188.622.622 0 0 0-.458.188l-1.98 1.98L9 7.388a.63.63 0 0 0-.458-.188.622.622 0 0 0-.458.188l-.916.916a.622.622 0 0 0-.188.458c0 .18.062.332.188.458l1.98 1.98-1.98 1.98a.619.619 0 0 0-.188.458c0 .18.062.332.188.458l.916.916a.622.622 0 0 0 .458.188c.18 0 .332-.062.458-.188l1.98-1.98 1.98 1.98a.622.622 0 0 0 .458.188c.18 0 .332-.062.458-.188l.916-.916a.619.619 0 0 0 .188-.458.622.622 0 0 0-.188-.458l-1.98-1.98" fill="#fff"/></svg>