<svg xmlns="http://www.w3.org/2000/svg" viewBox="0 0 812 812" xml:space="preserve">
    <circle fill="#8A2BE2" cx="406" cy="406" r="406"/>
    <g fill="white" transform="translate(150,150)">
        <path fill="white" d="M182.4 251.5c-28.9 0-52.5 23.5-52.5 52.5s23.5 52.5 52.5 52.5c28.9 0 52.5-23.5 52.5-52.5s-23.6-52.5-52.5-52.5zm0 80.4c-15.4 0-28-12.5-28-28s12.5-28 28-28c15.4 0 28 12.5 28 28s-12.6 28-28 28zM382.1 303.9c0-28.9-23.5-52.5-52.5-52.5-28.9 0-52.5 23.5-52.5 52.5s23.5 52.5 52.5 52.5 52.5-23.6 52.5-52.5zm-52.5 28c-15.4 0-28-12.5-28-28s12.5-28 28-28c15.4 0 28 12.5 28 28s-12.5 28-28 28z"/>
        <path fill="white" d="M467.8 173.6c-8.4-50-49.7-87-100.6-90.1l-2.1-.4c-.7-.1-1.4-.2-2.1-.2H151.5c-53.3 0-98.4 38.1-107.2 90.4L12 346.4c-1 4.7-1.5 9.4-1.5 14.1 0 37.8 30.7 68.5 68.5 68.5 22.8 0 44.1-11.3 56.6-29.9l15.6-21.6c4-5.5 2.7-13.1-2.8-17.1-5.5-4-13.1-2.7-17.1 2.8l-15.8 21.9c-8.2 12.2-21.9 19.5-36.5 19.5-24.3 0-44-19.8-44-44 0-3 .3-6.1 1-9.4l32.3-173.5c6.8-40.7 41.8-70.2 83.1-70.2H362l1.7.3c.5.1.9.1 1.4.2 39 2.1 72 31.5 78.5 69.9L476 351.4c.6 3 .9 6.1.9 9.1 0 24.3-19.8 44-44 44-14.7 0-28.3-7.3-36.8-19.8l-16.8-23.2c-4-5.5-11.6-6.7-17.1-2.8-5.5 4-6.7 11.6-2.8 17.1l16.5 22.9c12.8 18.9 34 30.2 56.8 30.2 37.8 0 68.5-30.7 68.5-68.5 0-4.7-.5-9.5-1.4-13.9l-32-172.9z"/>
        <circle fill="white" cx="309.5" cy="171.8" r="26.6"/>
        <circle fill="white" cx="377.4" cy="171.8" r="26.6"/>
        <path fill="white" d="M159.7 132.6c-6.8 0-12.3 5.5-12.3 12.3V167h-22.1c-6.8 0-12.3 5.5-12.3 12.3s5.5 12.3 12.3 12.3h22.1v22.1c0 6.8 5.5 12.3 12.3 12.3s12.3-5.5 12.3-12.3v-22.1h22.1c6.8 0 12.3-5.5 12.3-12.3s-5.5-12.3-12.3-12.3H172v-22.1c0-6.8-5.5-12.3-12.3-12.3z"/>
    </g>
</svg>